<svg width="1920" height="1080" viewBox="0 0 1920 1080" fill="none" xmlns="http://www.w3.org/2000/svg">
<g id="Frame 1" clip-path="url(#clip0)">
<rect width="1920" height="1080" fill="#FAFAFA"/>
<path id="Vector 49" d="M937.966 862.498L783.558 1130.73L805.934 1184.11L1057.29 1534.28L1704.13 1417.23L2252.69 689.951L2078.59 587.937L1952.78 507.531C1872.04 499.212 1696.4 488.507 1639.79 512.236L1024.33 714.084L937.966 862.498Z" fill="url(#paint0_radial)"/>
<path id="Vector 48" d="M6.56015 657.712L-269.299 749.594L-274.966 789.272L-215.161 1091.66L442.457 1284.95L1310.86 1088.13L1199.92 959.417L1123.05 862.556C1052.31 825.257 894.762 748.365 830.533 739.193L160.057 607.247L6.56015 657.712Z" fill="url(#paint1_radial)"/>
<g id="Group 10">
<g id="mug-right">
<path id="Vector 24" d="M1696.76 604.116L1673.51 439.518L1156.81 539.233L1248.09 1185.45C1252.45 1216.31 1267.23 1243.86 1289.16 1262.04C1311.1 1280.22 1338.4 1287.54 1365.07 1282.4L1680.7 1221.49C1693.9 1218.94 1706.55 1213.41 1717.92 1205.21C1729.29 1197 1739.17 1186.3 1746.98 1173.69C1754.78 1161.08 1760.38 1146.83 1763.44 1131.74C1766.49 1116.65 1766.96 1101.02 1764.8 1085.74L1753.86 1008.32C1800.18 999.379 1841.59 969.514 1868.99 925.292C1896.38 881.072 1907.52 826.115 1899.95 772.514C1892.38 718.915 1866.72 671.061 1828.61 639.478C1790.51 607.898 1743.08 595.178 1696.76 604.116ZM1747.09 960.397L1703.53 652.036C1721.03 648.658 1738.92 649.302 1756.18 653.93C1773.44 658.559 1789.73 667.08 1804.12 679.009C1818.52 690.94 1830.73 706.043 1840.07 723.458C1849.41 740.871 1855.69 760.257 1858.55 780.504C1861.41 800.753 1860.8 821.468 1856.74 841.466C1852.69 861.465 1845.28 880.357 1834.93 897.062C1824.58 913.766 1811.49 927.957 1796.42 938.823C1781.35 949.691 1764.59 957.021 1747.09 960.397Z" fill="#DBE8FC"/>
<path id="Vector 25" d="M1609.55 471.126L1211.67 547.909L1252.28 835.434L1650.17 758.651L1609.55 471.126Z" fill="#6C63FF"/>
<path id="Vector 26" opacity="0.03" d="M1699.1 425.647C1687.91 379.083 1556.47 381.173 1405.53 430.316C1254.59 479.458 1141.3 557.044 1152.49 603.61C1159.31 632.009 1210.88 642.301 1284.3 634.865C1281.59 647.362 1282.76 660.552 1287.62 672.116C1292.48 683.681 1300.71 692.879 1310.86 698.095C1321.01 703.309 1332.44 704.208 1343.13 700.63C1353.82 697.053 1363.09 689.228 1369.32 678.534C1386.47 720.181 1415.14 745.368 1440 737.275C1467.21 728.417 1480.55 682.732 1472.68 631.181C1486.2 643.694 1501.56 649.051 1515.91 644.38C1533.4 638.684 1545.53 619.346 1550.2 593.906C1561.12 600.826 1572.72 603.157 1583.72 599.573C1597.83 594.982 1608.45 581.523 1614.49 563.144C1625.69 599.824 1652.17 622.744 1675.85 615.037C1701 606.845 1713.46 567.175 1703.67 526.432C1698.47 504.797 1688.04 487.21 1675.64 476.699C1693.89 457.858 1702.6 440.231 1699.1 425.647Z" fill="#F2E786"/>
<path id="Vector 27" d="M1694.03 404.569C1682.84 358.005 1551.41 360.095 1400.46 409.239C1249.52 458.38 1136.23 535.966 1147.42 582.532C1154.24 610.931 1205.81 621.221 1279.24 613.787C1276.52 626.284 1277.7 639.475 1282.56 651.038C1287.41 662.603 1295.64 671.801 1305.79 677.017C1315.95 682.231 1327.37 683.13 1338.06 679.552C1348.76 675.975 1358.03 668.15 1364.25 657.456C1381.41 699.103 1410.07 724.29 1434.94 716.197C1462.14 707.337 1475.49 661.654 1467.62 610.104C1481.14 622.616 1496.49 627.973 1510.84 623.302C1528.33 617.606 1540.46 598.266 1545.14 572.825C1556.05 579.746 1567.65 582.079 1578.66 578.496C1592.76 573.904 1603.39 560.443 1609.43 542.064C1620.63 578.746 1647.11 601.664 1670.78 593.956C1695.94 585.767 1708.39 546.097 1698.6 505.354C1693.4 483.719 1682.98 466.132 1670.58 455.621C1688.82 436.78 1697.54 419.153 1694.03 404.569Z" fill="#F2E786"/>
<path id="Vector 30" d="M1702.55 1129.51L1304.67 1206.3L1232.57 695.839C1364.7 779.926 1497.32 754.331 1630.45 619.054L1702.55 1129.51Z" fill="#6C63FF"/>
<g id="bubble-right">
<path id="4" d="M1303.42 809.122C1295.5 811.698 1298.91 825.937 1306.84 823.355C1314.75 820.777 1311.35 806.54 1303.42 809.122Z" fill="#FAFAFA"/>
<path id="3" d="M1391.41 986.909C1383.49 989.485 1386.9 1003.72 1394.83 1001.14C1402.75 998.564 1399.34 984.327 1391.41 986.909Z" fill="#FAFAFA"/>
<path id="2" d="M1459.22 864.667C1451.3 867.245 1454.71 881.482 1462.64 878.9C1470.56 876.322 1467.15 862.085 1459.22 864.667Z" fill="#FAFAFA"/>
<path id="1" d="M1618.97 791.032C1611.05 793.61 1614.46 807.847 1622.39 805.265C1630.3 802.689 1626.9 788.45 1618.97 791.032Z" fill="#FAFAFA"/>
</g>
</g>
<g id="mug-left">
<path id="Vector 36" d="M8.69114 758.345C0.538629 811.86 11.0795 866.934 37.9948 911.449C64.91 955.966 105.995 986.278 152.212 995.718L140.436 1073.01C135.743 1103.82 141.811 1135.53 157.306 1161.15C172.801 1186.78 196.453 1204.23 223.061 1209.67L538.013 1274C551.187 1276.69 564.69 1276.35 577.75 1273C590.811 1269.65 603.174 1263.35 614.132 1254.46C625.092 1245.58 634.432 1234.28 641.621 1221.22C648.809 1208.16 653.705 1193.58 656.029 1178.33L754.319 533.138L238.724 427.824L213.69 592.16C167.473 582.72 119.911 594.925 81.4665 626.091C43.0219 657.258 16.8437 704.831 8.69114 758.345ZM50.0105 766.785C53.0899 746.571 59.578 727.256 69.1041 709.943C78.6301 692.633 91.0076 677.663 105.53 665.891C120.052 654.117 136.435 645.773 153.742 641.331C171.05 636.889 188.943 636.439 206.401 640.004L159.5 947.874C124.242 940.673 92.8992 917.548 72.3658 883.586C51.8325 849.626 43.7909 807.612 50.0105 766.785Z" fill="#DBE8FC"/>
<path id="Vector 37" d="M258.608 747.185L655.635 828.281L699.367 541.214L302.34 460.115L258.608 747.185Z" fill="#6C63FF"/>
<path id="Vector 38" opacity="0.03" d="M213.296 413.676C224.99 367.237 356.392 370.752 506.793 421.53C657.193 472.306 769.638 551.116 757.943 597.557C750.812 625.881 699.136 635.613 625.794 627.381C628.372 639.907 627.055 653.084 622.073 664.594C617.091 676.106 608.763 685.214 598.555 690.32C588.347 695.423 576.911 696.198 566.257 692.504C555.605 688.811 546.419 680.886 540.313 670.126C522.704 711.584 493.768 736.459 468.995 728.096C441.883 718.944 429.035 673.117 437.465 621.655C423.809 634.02 408.396 639.21 394.101 634.383C376.672 628.499 364.753 609.029 360.353 583.54C349.367 590.342 337.741 592.547 326.774 588.844C312.72 584.1 302.24 570.526 296.401 552.083C284.804 588.639 258.079 611.27 234.49 603.307C209.423 594.843 197.398 555.041 207.63 514.406C213.063 492.829 223.68 475.356 236.196 464.98C218.154 445.942 209.633 428.222 213.296 413.676Z" fill="#F2E786"/>
<path id="Vector 39" d="M218.588 392.654C230.284 346.215 361.686 349.73 512.087 400.508C662.487 451.284 774.931 530.094 763.237 576.536C756.104 604.86 704.43 614.589 631.086 606.359C633.666 618.885 632.349 632.062 627.367 643.572C622.385 655.084 614.057 664.192 603.849 669.298C593.641 674.401 582.204 675.176 571.551 671.482C560.899 667.79 551.713 659.864 545.607 649.104C527.998 690.562 499.062 715.437 474.289 707.074C447.177 697.92 434.329 652.095 442.759 600.633C429.102 612.998 413.69 618.188 399.395 613.362C381.966 607.477 370.045 588.005 365.647 562.516C354.661 569.318 343.035 571.525 332.068 567.822C318.014 563.078 307.534 549.502 301.695 531.062C290.098 567.617 263.371 590.247 239.784 582.283C214.717 573.821 202.692 534.019 212.924 493.384C218.357 471.807 228.972 454.334 241.488 443.958C223.448 424.92 214.927 407.2 218.588 392.654Z" fill="#F2E786"/>
<path id="Vector 42" d="M202.203 1117.47L599.228 1198.56L676.867 688.913C543.832 771.561 411.491 744.53 279.842 607.817L202.203 1117.47Z" fill="#6C63FF"/>
<g id="bubble-left">
<path id="4_2" d="M604.792 801.421C612.68 804.082 609.119 818.284 601.218 815.616C593.33 812.952 596.891 798.753 604.792 801.421Z" fill="#FAFAFA"/>
<path id="3_2" d="M514.874 978.243C522.762 980.904 519.201 995.105 511.299 992.438C503.411 989.774 506.973 975.575 514.874 978.243Z" fill="#FAFAFA"/>
<path id="2_2" d="M448.397 855.272C456.285 857.936 452.724 872.135 444.822 869.467C436.934 866.803 440.495 852.604 448.397 855.272Z" fill="#FAFAFA"/>
<path id="1_2" d="M289.458 779.909C297.346 782.573 293.785 796.772 285.884 794.104C277.994 791.442 281.557 777.241 289.458 779.909Z" fill="#FAFAFA"/>
</g>
</g>
<g id="sparkle-right">
<path id="9" opacity="0.5" d="M1416.93 186.943C1414.99 186.417 1413.42 185.464 1412.53 184.267C1411.64 183.07 1411.49 181.712 1412.11 180.453C1412.21 180.258 1412.28 180.06 1412.3 179.856C1412.36 179.279 1412.11 178.705 1411.6 178.221C1411.09 177.736 1410.34 177.366 1409.47 177.166C1408.59 176.966 1407.64 176.947 1406.75 177.109C1405.85 177.273 1405.06 177.61 1404.5 178.072C1404.31 178.236 1404.15 178.412 1404.02 178.601C1403.18 179.808 1401.64 180.782 1399.71 181.332C1397.78 181.885 1395.59 181.977 1393.56 181.593C1393.25 181.531 1392.93 181.492 1392.6 181.476C1391.67 181.441 1390.75 181.593 1389.97 181.908C1389.19 182.225 1388.59 182.689 1388.27 183.232C1387.95 183.774 1387.91 184.368 1388.17 184.923C1388.44 185.478 1388.98 185.965 1389.73 186.314C1389.99 186.434 1390.28 186.534 1390.58 186.613C1392.53 187.139 1394.09 188.09 1394.98 189.287C1395.87 190.484 1396.02 191.842 1395.4 193.103C1395.3 193.296 1395.24 193.496 1395.21 193.698C1395.16 194.275 1395.4 194.849 1395.91 195.333C1396.42 195.818 1397.17 196.188 1398.04 196.388C1398.92 196.588 1399.87 196.609 1400.77 196.445C1401.66 196.281 1402.45 195.944 1403.01 195.482C1403.2 195.318 1403.36 195.141 1403.49 194.954C1404.34 193.746 1405.87 192.773 1407.8 192.222C1409.73 191.669 1411.92 191.577 1413.95 191.961C1414.26 192.024 1414.58 192.062 1414.91 192.078C1415.84 192.113 1416.77 191.961 1417.54 191.646C1418.33 191.329 1418.92 190.865 1419.25 190.322C1419.57 189.78 1419.6 189.186 1419.34 188.631C1419.08 188.077 1418.53 187.589 1417.79 187.24C1417.52 187.121 1417.24 187.02 1416.93 186.943Z" fill="#F55F44"/>
<path id="8" opacity="0.5" d="M1300.93 243.943C1298.99 243.417 1297.42 242.464 1296.53 241.267C1295.64 240.07 1295.49 238.712 1296.11 237.453C1296.21 237.258 1296.28 237.06 1296.3 236.856C1296.36 236.279 1296.11 235.705 1295.6 235.221C1295.09 234.736 1294.34 234.366 1293.47 234.166C1292.59 233.966 1291.64 233.947 1290.75 234.109C1289.85 234.273 1289.06 234.61 1288.5 235.072C1288.31 235.236 1288.15 235.412 1288.02 235.601C1287.18 236.808 1285.64 237.782 1283.71 238.332C1281.78 238.885 1279.59 238.977 1277.56 238.593C1277.25 238.531 1276.93 238.492 1276.6 238.476C1275.67 238.441 1274.75 238.593 1273.97 238.908C1273.19 239.225 1272.59 239.689 1272.27 240.232C1271.95 240.774 1271.91 241.368 1272.17 241.923C1272.44 242.478 1272.98 242.965 1273.73 243.314C1273.99 243.434 1274.28 243.534 1274.58 243.613C1276.53 244.139 1278.09 245.09 1278.98 246.287C1279.87 247.484 1280.02 248.842 1279.4 250.103C1279.3 250.296 1279.24 250.496 1279.21 250.698C1279.16 251.275 1279.4 251.849 1279.91 252.333C1280.42 252.818 1281.17 253.188 1282.04 253.388C1282.92 253.588 1283.87 253.609 1284.77 253.445C1285.66 253.281 1286.45 252.944 1287.01 252.482C1287.2 252.318 1287.36 252.141 1287.49 251.954C1288.34 250.746 1289.87 249.773 1291.8 249.222C1293.73 248.669 1295.92 248.577 1297.95 248.961C1298.26 249.024 1298.58 249.062 1298.91 249.078C1299.84 249.113 1300.77 248.961 1301.54 248.646C1302.33 248.329 1302.92 247.865 1303.25 247.322C1303.57 246.78 1303.6 246.186 1303.34 245.631C1303.08 245.077 1302.53 244.589 1301.79 244.24C1301.52 244.121 1301.24 244.02 1300.93 243.943Z" fill="#F55F44"/>
<path id="7" opacity="0.5" d="M1218.93 375.943C1216.99 375.417 1215.42 374.464 1214.53 373.267C1213.64 372.07 1213.49 370.712 1214.11 369.453C1214.21 369.258 1214.28 369.06 1214.3 368.856C1214.36 368.279 1214.11 367.705 1213.6 367.221C1213.09 366.736 1212.34 366.366 1211.47 366.166C1210.59 365.966 1209.64 365.947 1208.75 366.109C1207.85 366.273 1207.06 366.61 1206.5 367.072C1206.31 367.236 1206.15 367.412 1206.02 367.601C1205.18 368.808 1203.64 369.782 1201.71 370.332C1199.78 370.885 1197.59 370.977 1195.56 370.593C1195.25 370.531 1194.93 370.492 1194.6 370.476C1193.67 370.441 1192.75 370.593 1191.97 370.908C1191.19 371.225 1190.59 371.689 1190.27 372.232C1189.95 372.774 1189.91 373.368 1190.17 373.923C1190.44 374.478 1190.98 374.965 1191.73 375.314C1191.99 375.434 1192.28 375.534 1192.58 375.613C1194.53 376.139 1196.09 377.09 1196.98 378.287C1197.87 379.484 1198.02 380.842 1197.4 382.103C1197.3 382.296 1197.24 382.496 1197.21 382.698C1197.16 383.275 1197.4 383.849 1197.91 384.333C1198.42 384.818 1199.17 385.188 1200.04 385.388C1200.92 385.588 1201.87 385.609 1202.77 385.445C1203.66 385.281 1204.45 384.944 1205.01 384.482C1205.2 384.318 1205.36 384.141 1205.49 383.954C1206.34 382.746 1207.87 381.773 1209.8 381.222C1211.73 380.669 1213.92 380.577 1215.95 380.961C1216.26 381.024 1216.58 381.062 1216.91 381.078C1217.84 381.113 1218.77 380.961 1219.54 380.646C1220.33 380.329 1220.92 379.865 1221.25 379.322C1221.57 378.78 1221.6 378.186 1221.34 377.631C1221.08 377.077 1220.53 376.589 1219.79 376.24C1219.52 376.121 1219.24 376.02 1218.93 375.943Z" fill="#F55F44"/>
<path id="6" opacity="0.5" d="M1523.93 287.943C1521.99 287.417 1520.42 286.464 1519.53 285.267C1518.64 284.07 1518.49 282.712 1519.11 281.453C1519.21 281.258 1519.28 281.06 1519.3 280.856C1519.36 280.279 1519.11 279.705 1518.6 279.221C1518.09 278.736 1517.34 278.366 1516.47 278.166C1515.59 277.966 1514.64 277.947 1513.75 278.109C1512.85 278.273 1512.06 278.61 1511.5 279.072C1511.31 279.236 1511.15 279.412 1511.02 279.601C1510.18 280.808 1508.64 281.782 1506.71 282.332C1504.78 282.885 1502.59 282.977 1500.56 282.593C1500.25 282.531 1499.93 282.492 1499.6 282.476C1498.67 282.441 1497.75 282.593 1496.97 282.908C1496.19 283.225 1495.59 283.689 1495.27 284.232C1494.95 284.774 1494.91 285.368 1495.17 285.923C1495.44 286.478 1495.98 286.965 1496.73 287.314C1496.99 287.434 1497.28 287.534 1497.58 287.613C1499.53 288.139 1501.09 289.09 1501.98 290.287C1502.87 291.484 1503.02 292.842 1502.4 294.103C1502.3 294.296 1502.24 294.496 1502.21 294.698C1502.16 295.275 1502.4 295.849 1502.91 296.333C1503.42 296.818 1504.17 297.188 1505.04 297.388C1505.92 297.588 1506.87 297.609 1507.77 297.445C1508.66 297.281 1509.45 296.944 1510.01 296.482C1510.2 296.318 1510.36 296.141 1510.49 295.954C1511.34 294.746 1512.87 293.773 1514.8 293.222C1516.73 292.669 1518.92 292.577 1520.95 292.961C1521.26 293.024 1521.58 293.062 1521.91 293.078C1522.84 293.113 1523.77 292.961 1524.54 292.646C1525.33 292.329 1525.92 291.865 1526.25 291.322C1526.57 290.78 1526.6 290.186 1526.34 289.631C1526.08 289.077 1525.53 288.589 1524.79 288.24C1524.52 288.121 1524.24 288.02 1523.93 287.943Z" fill="#F55F44"/>
<path id="5" opacity="0.5" d="M1515.93 365.943C1513.99 365.417 1512.42 364.464 1511.53 363.267C1510.64 362.07 1510.49 360.712 1511.11 359.453C1511.21 359.258 1511.28 359.06 1511.3 358.856C1511.36 358.279 1511.11 357.705 1510.6 357.221C1510.09 356.736 1509.34 356.366 1508.47 356.166C1507.59 355.966 1506.64 355.947 1505.75 356.109C1504.85 356.273 1504.06 356.61 1503.5 357.072C1503.31 357.236 1503.15 357.412 1503.02 357.601C1502.18 358.808 1500.64 359.782 1498.71 360.332C1496.78 360.885 1494.59 360.977 1492.56 360.593C1492.25 360.531 1491.93 360.492 1491.6 360.476C1490.67 360.441 1489.75 360.593 1488.97 360.908C1488.19 361.225 1487.59 361.689 1487.27 362.232C1486.95 362.774 1486.91 363.368 1487.17 363.923C1487.44 364.478 1487.98 364.965 1488.73 365.314C1488.99 365.434 1489.28 365.534 1489.58 365.613C1491.53 366.139 1493.09 367.09 1493.98 368.287C1494.87 369.484 1495.02 370.842 1494.4 372.103C1494.3 372.296 1494.24 372.496 1494.21 372.698C1494.16 373.275 1494.4 373.849 1494.91 374.333C1495.42 374.818 1496.17 375.188 1497.04 375.388C1497.92 375.588 1498.87 375.609 1499.77 375.445C1500.66 375.281 1501.45 374.944 1502.01 374.482C1502.2 374.318 1502.36 374.141 1502.49 373.954C1503.34 372.746 1504.87 371.773 1506.8 371.222C1508.73 370.669 1510.92 370.577 1512.95 370.961C1513.26 371.024 1513.58 371.062 1513.91 371.078C1514.84 371.113 1515.77 370.961 1516.54 370.646C1517.33 370.329 1517.92 369.865 1518.25 369.322C1518.57 368.78 1518.6 368.186 1518.34 367.631C1518.08 367.077 1517.53 366.589 1516.79 366.24C1516.52 366.121 1516.24 366.02 1515.93 365.943Z" fill="#F55F44"/>
<path id="4_3" opacity="0.5" d="M1332.93 488.943C1330.99 488.417 1329.42 487.464 1328.53 486.267C1327.64 485.07 1327.49 483.712 1328.11 482.453C1328.21 482.258 1328.28 482.06 1328.3 481.856C1328.36 481.279 1328.11 480.705 1327.6 480.221C1327.09 479.736 1326.34 479.366 1325.47 479.166C1324.59 478.966 1323.64 478.947 1322.75 479.109C1321.85 479.273 1321.06 479.61 1320.5 480.072C1320.31 480.236 1320.15 480.412 1320.02 480.601C1319.18 481.808 1317.64 482.782 1315.71 483.332C1313.78 483.885 1311.59 483.977 1309.56 483.593C1309.25 483.531 1308.93 483.492 1308.6 483.476C1307.67 483.441 1306.75 483.593 1305.97 483.908C1305.19 484.225 1304.59 484.689 1304.27 485.232C1303.95 485.774 1303.91 486.368 1304.17 486.923C1304.44 487.478 1304.98 487.965 1305.73 488.314C1305.99 488.434 1306.28 488.534 1306.58 488.613C1308.53 489.139 1310.09 490.09 1310.98 491.287C1311.87 492.484 1312.02 493.842 1311.4 495.103C1311.3 495.296 1311.24 495.496 1311.21 495.698C1311.16 496.275 1311.4 496.849 1311.91 497.333C1312.42 497.818 1313.17 498.188 1314.04 498.388C1314.92 498.588 1315.87 498.609 1316.77 498.445C1317.66 498.281 1318.45 497.944 1319.01 497.482C1319.2 497.318 1319.36 497.141 1319.49 496.954C1320.34 495.746 1321.87 494.773 1323.8 494.222C1325.73 493.669 1327.92 493.577 1329.95 493.961C1330.26 494.024 1330.58 494.062 1330.91 494.078C1331.84 494.113 1332.77 493.961 1333.54 493.646C1334.33 493.329 1334.92 492.865 1335.25 492.322C1335.57 491.78 1335.6 491.186 1335.34 490.631C1335.08 490.077 1334.53 489.589 1333.79 489.24C1333.52 489.121 1333.24 489.02 1332.93 488.943Z" fill="#F55F44"/>
<path id="3_3" opacity="0.5" d="M1464.93 425.943C1462.99 425.417 1461.42 424.464 1460.53 423.267C1459.64 422.07 1459.49 420.712 1460.11 419.453C1460.21 419.258 1460.28 419.06 1460.3 418.856C1460.36 418.279 1460.11 417.705 1459.6 417.221C1459.09 416.736 1458.34 416.366 1457.47 416.166C1456.59 415.966 1455.64 415.947 1454.75 416.109C1453.85 416.273 1453.06 416.61 1452.5 417.072C1452.31 417.236 1452.15 417.412 1452.02 417.601C1451.18 418.808 1449.64 419.782 1447.71 420.332C1445.78 420.885 1443.59 420.977 1441.56 420.593C1441.25 420.531 1440.93 420.492 1440.6 420.476C1439.67 420.441 1438.75 420.593 1437.97 420.908C1437.19 421.225 1436.59 421.689 1436.27 422.232C1435.95 422.774 1435.91 423.368 1436.17 423.923C1436.44 424.478 1436.98 424.965 1437.73 425.314C1437.99 425.434 1438.28 425.534 1438.58 425.613C1440.53 426.139 1442.09 427.09 1442.98 428.287C1443.87 429.484 1444.02 430.842 1443.4 432.103C1443.3 432.296 1443.24 432.496 1443.21 432.698C1443.16 433.275 1443.4 433.849 1443.91 434.333C1444.42 434.818 1445.17 435.188 1446.04 435.388C1446.92 435.588 1447.87 435.609 1448.77 435.445C1449.66 435.281 1450.45 434.944 1451.01 434.482C1451.2 434.318 1451.36 434.141 1451.49 433.954C1452.34 432.746 1453.87 431.773 1455.8 431.222C1457.73 430.669 1459.92 430.577 1461.95 430.961C1462.26 431.024 1462.58 431.062 1462.91 431.078C1463.84 431.113 1464.77 430.961 1465.54 430.646C1466.33 430.329 1466.92 429.865 1467.25 429.322C1467.57 428.78 1467.6 428.186 1467.34 427.631C1467.08 427.077 1466.53 426.589 1465.79 426.24C1465.52 426.121 1465.24 426.02 1464.93 425.943Z" fill="#F55F44"/>
<path id="2_3" opacity="0.5" d="M1416.93 287.943C1414.99 287.417 1413.42 286.464 1412.53 285.267C1411.64 284.07 1411.49 282.712 1412.11 281.453C1412.21 281.258 1412.28 281.06 1412.3 280.856C1412.36 280.279 1412.11 279.705 1411.6 279.221C1411.09 278.736 1410.34 278.366 1409.47 278.166C1408.59 277.966 1407.64 277.947 1406.75 278.109C1405.85 278.273 1405.06 278.61 1404.5 279.072C1404.31 279.236 1404.15 279.412 1404.02 279.601C1403.18 280.808 1401.64 281.782 1399.71 282.332C1397.78 282.885 1395.59 282.977 1393.56 282.593C1393.25 282.531 1392.93 282.492 1392.6 282.476C1391.67 282.441 1390.75 282.593 1389.97 282.908C1389.19 283.225 1388.59 283.689 1388.27 284.232C1387.95 284.774 1387.91 285.368 1388.17 285.923C1388.44 286.478 1388.98 286.965 1389.73 287.314C1389.99 287.434 1390.28 287.534 1390.58 287.613C1392.53 288.139 1394.09 289.09 1394.98 290.287C1395.87 291.484 1396.02 292.842 1395.4 294.103C1395.3 294.296 1395.24 294.496 1395.21 294.698C1395.16 295.275 1395.4 295.849 1395.91 296.333C1396.42 296.818 1397.17 297.188 1398.04 297.388C1398.92 297.588 1399.87 297.609 1400.77 297.445C1401.66 297.281 1402.45 296.944 1403.01 296.482C1403.2 296.318 1403.36 296.141 1403.49 295.954C1404.34 294.746 1405.87 293.773 1407.8 293.222C1409.73 292.669 1411.92 292.577 1413.95 292.961C1414.26 293.024 1414.58 293.062 1414.91 293.078C1415.84 293.113 1416.77 292.961 1417.54 292.646C1418.33 292.329 1418.92 291.865 1419.25 291.322C1419.57 290.78 1419.6 290.186 1419.34 289.631C1419.08 289.077 1418.53 288.589 1417.79 288.24C1417.52 288.121 1417.24 288.02 1416.93 287.943Z" fill="#F55F44"/>
<path id="1_3" opacity="0.5" d="M1349.93 351.943C1347.99 351.417 1346.42 350.464 1345.53 349.267C1344.64 348.07 1344.49 346.712 1345.11 345.453C1345.21 345.258 1345.28 345.06 1345.3 344.856C1345.36 344.279 1345.11 343.705 1344.6 343.221C1344.09 342.736 1343.34 342.366 1342.47 342.166C1341.59 341.966 1340.64 341.947 1339.75 342.109C1338.85 342.273 1338.06 342.61 1337.5 343.072C1337.31 343.236 1337.15 343.412 1337.02 343.601C1336.18 344.808 1334.64 345.782 1332.71 346.332C1330.78 346.885 1328.59 346.977 1326.56 346.593C1326.25 346.531 1325.93 346.492 1325.6 346.476C1324.67 346.441 1323.75 346.593 1322.97 346.908C1322.19 347.225 1321.59 347.689 1321.27 348.232C1320.95 348.774 1320.91 349.368 1321.17 349.923C1321.44 350.478 1321.98 350.965 1322.73 351.314C1322.99 351.434 1323.28 351.534 1323.58 351.613C1325.53 352.139 1327.09 353.09 1327.98 354.287C1328.87 355.484 1329.02 356.842 1328.4 358.103C1328.3 358.296 1328.24 358.496 1328.21 358.698C1328.16 359.275 1328.4 359.849 1328.91 360.333C1329.42 360.818 1330.17 361.188 1331.04 361.388C1331.92 361.588 1332.87 361.609 1333.77 361.445C1334.66 361.281 1335.45 360.944 1336.01 360.482C1336.2 360.318 1336.36 360.141 1336.49 359.954C1337.34 358.746 1338.87 357.773 1340.8 357.222C1342.73 356.669 1344.92 356.577 1346.95 356.961C1347.26 357.024 1347.58 357.062 1347.91 357.078C1348.84 357.113 1349.77 356.961 1350.54 356.646C1351.33 356.329 1351.92 355.865 1352.25 355.322C1352.57 354.78 1352.6 354.186 1352.34 353.631C1352.08 353.077 1351.53 352.589 1350.79 352.24C1350.52 352.121 1350.24 352.02 1349.93 351.943Z" fill="#F55F44"/>
</g>
<g id="sparkle-left">
<path id="9_2" opacity="0.5" d="M415.935 411.943C413.987 411.417 412.418 410.464 411.53 409.267C410.64 408.07 410.492 406.712 411.111 405.453C411.213 405.258 411.276 405.06 411.3 404.856C411.356 404.279 411.111 403.705 410.603 403.221C410.094 402.736 409.345 402.366 408.471 402.166C407.595 401.966 406.641 401.947 405.746 402.109C404.851 402.273 404.064 402.61 403.504 403.072C403.311 403.236 403.148 403.412 403.023 403.601C402.175 404.808 400.64 405.782 398.711 406.332C396.782 406.885 394.594 406.977 392.563 406.593C392.253 406.531 391.93 406.492 391.602 406.476C390.672 406.441 389.749 406.593 388.967 406.908C388.187 407.225 387.591 407.689 387.269 408.232C386.946 408.774 386.913 409.368 387.175 409.923C387.438 410.478 387.982 410.965 388.727 411.314C388.99 411.434 389.278 411.534 389.579 411.613C391.527 412.139 393.093 413.09 393.984 414.287C394.872 415.484 395.02 416.842 394.401 418.103C394.302 418.296 394.238 418.496 394.212 418.698C394.156 419.275 394.401 419.849 394.912 420.333C395.42 420.818 396.167 421.188 397.043 421.388C397.917 421.588 398.873 421.609 399.768 421.445C400.663 421.281 401.45 420.944 402.01 420.482C402.204 420.318 402.364 420.141 402.491 419.954C403.339 418.746 404.872 417.773 406.801 417.222C408.73 416.669 410.918 416.577 412.951 416.961C413.262 417.024 413.584 417.062 413.909 417.078C414.84 417.113 415.765 416.961 416.545 416.646C417.327 416.329 417.923 415.865 418.245 415.322C418.568 414.78 418.601 414.186 418.337 413.631C418.076 413.077 417.532 412.589 416.787 412.24C416.521 412.121 416.236 412.02 415.935 411.943Z" fill="#F55F44"/>
<path id="8_2" opacity="0.5" d="M565.935 337.943C563.987 337.417 562.418 336.464 561.53 335.267C560.64 334.07 560.492 332.712 561.111 331.453C561.213 331.258 561.276 331.06 561.3 330.856C561.356 330.279 561.111 329.705 560.603 329.221C560.094 328.736 559.345 328.366 558.471 328.166C557.595 327.966 556.641 327.947 555.746 328.109C554.851 328.273 554.064 328.61 553.504 329.072C553.311 329.236 553.148 329.412 553.023 329.601C552.175 330.808 550.64 331.782 548.711 332.332C546.782 332.885 544.594 332.977 542.563 332.593C542.253 332.531 541.93 332.492 541.602 332.476C540.672 332.441 539.749 332.593 538.967 332.908C538.187 333.225 537.591 333.689 537.269 334.232C536.946 334.774 536.913 335.368 537.175 335.923C537.438 336.478 537.982 336.965 538.727 337.314C538.99 337.434 539.278 337.534 539.579 337.613C541.527 338.139 543.093 339.09 543.984 340.287C544.872 341.484 545.02 342.842 544.401 344.103C544.302 344.296 544.238 344.496 544.212 344.698C544.156 345.275 544.401 345.849 544.912 346.333C545.42 346.818 546.167 347.188 547.043 347.388C547.917 347.588 548.873 347.609 549.768 347.445C550.663 347.281 551.45 346.944 552.01 346.482C552.204 346.318 552.364 346.141 552.491 345.954C553.339 344.746 554.872 343.773 556.801 343.222C558.73 342.669 560.918 342.577 562.951 342.961C563.262 343.024 563.584 343.062 563.909 343.078C564.84 343.113 565.765 342.961 566.545 342.646C567.327 342.329 567.923 341.865 568.245 341.322C568.568 340.78 568.601 340.186 568.337 339.631C568.076 339.077 567.532 338.589 566.787 338.24C566.521 338.121 566.236 338.02 565.935 337.943Z" fill="#F55F44"/>
<path id="7_2" opacity="0.5" d="M565.935 249.943C563.987 249.417 562.418 248.464 561.53 247.267C560.64 246.07 560.492 244.712 561.111 243.453C561.213 243.258 561.276 243.06 561.3 242.856C561.356 242.279 561.111 241.705 560.603 241.221C560.094 240.736 559.345 240.366 558.471 240.166C557.595 239.966 556.641 239.947 555.746 240.109C554.851 240.273 554.064 240.61 553.504 241.072C553.311 241.236 553.148 241.412 553.023 241.601C552.175 242.808 550.64 243.782 548.711 244.332C546.782 244.885 544.594 244.977 542.563 244.593C542.253 244.531 541.93 244.492 541.602 244.476C540.672 244.441 539.749 244.593 538.967 244.908C538.187 245.225 537.591 245.689 537.269 246.232C536.946 246.774 536.913 247.368 537.175 247.923C537.438 248.478 537.982 248.965 538.727 249.314C538.99 249.434 539.278 249.534 539.579 249.613C541.527 250.139 543.093 251.09 543.984 252.287C544.872 253.484 545.02 254.842 544.401 256.103C544.302 256.296 544.238 256.496 544.212 256.698C544.156 257.275 544.401 257.849 544.912 258.333C545.42 258.818 546.167 259.188 547.043 259.388C547.917 259.588 548.873 259.609 549.768 259.445C550.663 259.281 551.45 258.944 552.01 258.482C552.204 258.318 552.364 258.141 552.491 257.954C553.339 256.746 554.872 255.773 556.801 255.222C558.73 254.669 560.918 254.577 562.951 254.961C563.262 255.024 563.584 255.062 563.909 255.078C564.84 255.113 565.765 254.961 566.545 254.646C567.327 254.329 567.923 253.865 568.245 253.322C568.568 252.78 568.601 252.186 568.337 251.631C568.076 251.077 567.532 250.589 566.787 250.24C566.521 250.121 566.236 250.02 565.935 249.943Z" fill="#F55F44"/>
<path id="6_2" opacity="0.5" d="M346.935 307.943C344.987 307.417 343.418 306.464 342.53 305.267C341.64 304.07 341.492 302.712 342.111 301.453C342.213 301.258 342.276 301.06 342.3 300.856C342.356 300.279 342.111 299.705 341.603 299.221C341.094 298.736 340.345 298.366 339.471 298.166C338.595 297.966 337.641 297.947 336.746 298.109C335.851 298.273 335.064 298.61 334.504 299.072C334.311 299.236 334.148 299.412 334.023 299.601C333.175 300.808 331.64 301.782 329.711 302.332C327.782 302.885 325.594 302.977 323.563 302.593C323.253 302.531 322.93 302.492 322.602 302.476C321.672 302.441 320.749 302.593 319.967 302.908C319.187 303.225 318.591 303.689 318.269 304.232C317.946 304.774 317.913 305.368 318.175 305.923C318.438 306.478 318.982 306.965 319.727 307.314C319.99 307.434 320.278 307.534 320.579 307.613C322.527 308.139 324.093 309.09 324.984 310.287C325.872 311.484 326.02 312.842 325.401 314.103C325.302 314.296 325.238 314.496 325.212 314.698C325.156 315.275 325.401 315.849 325.912 316.333C326.42 316.818 327.167 317.188 328.043 317.388C328.917 317.588 329.873 317.609 330.768 317.445C331.663 317.281 332.45 316.944 333.01 316.482C333.204 316.318 333.364 316.141 333.491 315.954C334.339 314.746 335.872 313.773 337.801 313.222C339.73 312.669 341.918 312.577 343.951 312.961C344.262 313.024 344.584 313.062 344.909 313.078C345.84 313.113 346.765 312.961 347.545 312.646C348.327 312.329 348.923 311.865 349.245 311.322C349.568 310.78 349.601 310.186 349.337 309.631C349.076 309.077 348.532 308.589 347.787 308.24C347.521 308.121 347.236 308.02 346.935 307.943Z" fill="#F55F44"/>
<path id="5_2" opacity="0.5" d="M501.935 182.943C499.987 182.417 498.418 181.464 497.53 180.267C496.64 179.07 496.492 177.712 497.111 176.453C497.213 176.258 497.276 176.06 497.3 175.856C497.356 175.279 497.111 174.705 496.603 174.221C496.094 173.736 495.345 173.366 494.471 173.166C493.595 172.966 492.641 172.947 491.746 173.109C490.851 173.273 490.064 173.61 489.504 174.072C489.311 174.236 489.148 174.412 489.023 174.601C488.175 175.808 486.64 176.782 484.711 177.332C482.782 177.885 480.594 177.977 478.563 177.593C478.253 177.531 477.93 177.492 477.602 177.476C476.672 177.441 475.749 177.593 474.967 177.908C474.187 178.225 473.591 178.689 473.269 179.232C472.946 179.774 472.913 180.368 473.175 180.923C473.438 181.478 473.982 181.965 474.727 182.314C474.99 182.434 475.278 182.534 475.579 182.613C477.527 183.139 479.093 184.09 479.984 185.287C480.872 186.484 481.02 187.842 480.401 189.103C480.302 189.296 480.238 189.496 480.212 189.698C480.156 190.275 480.401 190.849 480.912 191.333C481.42 191.818 482.167 192.188 483.043 192.388C483.917 192.588 484.873 192.609 485.768 192.445C486.663 192.281 487.45 191.944 488.01 191.482C488.204 191.318 488.364 191.141 488.491 190.954C489.339 189.746 490.872 188.773 492.801 188.222C494.73 187.669 496.918 187.577 498.951 187.961C499.262 188.024 499.584 188.062 499.909 188.078C500.84 188.113 501.765 187.961 502.545 187.646C503.327 187.329 503.923 186.865 504.245 186.322C504.568 185.78 504.601 185.186 504.337 184.631C504.076 184.077 503.532 183.589 502.787 183.24C502.521 183.121 502.236 183.02 501.935 182.943Z" fill="#F55F44"/>
<path id="4_4" opacity="0.5" d="M667.935 307.943C665.987 307.417 664.418 306.464 663.53 305.267C662.64 304.07 662.492 302.712 663.111 301.453C663.213 301.258 663.276 301.06 663.3 300.856C663.356 300.279 663.111 299.705 662.603 299.221C662.094 298.736 661.345 298.366 660.471 298.166C659.595 297.966 658.641 297.947 657.746 298.109C656.851 298.273 656.064 298.61 655.504 299.072C655.311 299.236 655.148 299.412 655.023 299.601C654.175 300.808 652.64 301.782 650.711 302.332C648.782 302.885 646.594 302.977 644.563 302.593C644.253 302.531 643.93 302.492 643.602 302.476C642.672 302.441 641.749 302.593 640.967 302.908C640.187 303.225 639.591 303.689 639.269 304.232C638.946 304.774 638.913 305.368 639.175 305.923C639.438 306.478 639.982 306.965 640.727 307.314C640.99 307.434 641.278 307.534 641.579 307.613C643.527 308.139 645.093 309.09 645.984 310.287C646.872 311.484 647.02 312.842 646.401 314.103C646.302 314.296 646.238 314.496 646.212 314.698C646.156 315.275 646.401 315.849 646.912 316.333C647.42 316.818 648.167 317.188 649.043 317.388C649.917 317.588 650.873 317.609 651.768 317.445C652.663 317.281 653.45 316.944 654.01 316.482C654.204 316.318 654.364 316.141 654.491 315.954C655.339 314.746 656.872 313.773 658.801 313.222C660.73 312.669 662.918 312.577 664.951 312.961C665.262 313.024 665.584 313.062 665.909 313.078C666.84 313.113 667.765 312.961 668.545 312.646C669.327 312.329 669.923 311.865 670.245 311.322C670.568 310.78 670.601 310.186 670.337 309.631C670.076 309.077 669.532 308.589 668.787 308.24C668.521 308.121 668.236 308.02 667.935 307.943Z" fill="#F55F44"/>
<path id="3_4" opacity="0.5" d="M667.935 431.943C665.987 431.417 664.418 430.464 663.53 429.267C662.64 428.07 662.492 426.712 663.111 425.453C663.213 425.258 663.276 425.06 663.3 424.856C663.356 424.279 663.111 423.705 662.603 423.221C662.094 422.736 661.345 422.366 660.471 422.166C659.595 421.966 658.641 421.947 657.746 422.109C656.851 422.273 656.064 422.61 655.504 423.072C655.311 423.236 655.148 423.412 655.023 423.601C654.175 424.808 652.64 425.782 650.711 426.332C648.782 426.885 646.594 426.977 644.563 426.593C644.253 426.531 643.93 426.492 643.602 426.476C642.672 426.441 641.749 426.593 640.967 426.908C640.187 427.225 639.591 427.689 639.269 428.232C638.946 428.774 638.913 429.368 639.175 429.923C639.438 430.478 639.982 430.965 640.727 431.314C640.99 431.434 641.278 431.534 641.579 431.613C643.527 432.139 645.093 433.09 645.984 434.287C646.872 435.484 647.02 436.842 646.401 438.103C646.302 438.296 646.238 438.496 646.212 438.698C646.156 439.275 646.401 439.849 646.912 440.333C647.42 440.818 648.167 441.188 649.043 441.388C649.917 441.588 650.873 441.609 651.768 441.445C652.663 441.281 653.45 440.944 654.01 440.482C654.204 440.318 654.364 440.141 654.491 439.954C655.339 438.746 656.872 437.773 658.801 437.222C660.73 436.669 662.918 436.577 664.951 436.961C665.262 437.024 665.584 437.062 665.909 437.078C666.84 437.113 667.765 436.961 668.545 436.646C669.327 436.329 669.923 435.865 670.245 435.322C670.568 434.78 670.601 434.186 670.337 433.631C670.076 433.077 669.532 432.589 668.787 432.24C668.521 432.121 668.236 432.02 667.935 431.943Z" fill="#F55F44"/>
<path id="2_4" opacity="0.5" d="M469.935 283.943C467.987 283.417 466.418 282.464 465.53 281.267C464.64 280.07 464.492 278.712 465.111 277.453C465.213 277.258 465.276 277.06 465.3 276.856C465.356 276.279 465.111 275.705 464.603 275.221C464.094 274.736 463.345 274.366 462.471 274.166C461.595 273.966 460.641 273.947 459.746 274.109C458.851 274.273 458.064 274.61 457.504 275.072C457.311 275.236 457.148 275.412 457.023 275.601C456.175 276.808 454.64 277.782 452.711 278.332C450.782 278.885 448.594 278.977 446.563 278.593C446.253 278.531 445.93 278.492 445.602 278.476C444.672 278.441 443.749 278.593 442.967 278.908C442.187 279.225 441.591 279.689 441.269 280.232C440.946 280.774 440.913 281.368 441.175 281.923C441.438 282.478 441.982 282.965 442.727 283.314C442.99 283.434 443.278 283.534 443.579 283.613C445.527 284.139 447.093 285.09 447.984 286.287C448.872 287.484 449.02 288.842 448.401 290.103C448.302 290.296 448.238 290.496 448.212 290.698C448.156 291.275 448.401 291.849 448.912 292.333C449.42 292.818 450.167 293.188 451.043 293.388C451.917 293.588 452.873 293.609 453.768 293.445C454.663 293.281 455.45 292.944 456.01 292.482C456.204 292.318 456.364 292.141 456.491 291.954C457.339 290.746 458.872 289.773 460.801 289.222C462.73 288.669 464.918 288.577 466.951 288.961C467.262 289.024 467.584 289.062 467.909 289.078C468.84 289.113 469.765 288.961 470.545 288.646C471.327 288.329 471.923 287.865 472.245 287.322C472.568 286.78 472.601 286.186 472.337 285.631C472.076 285.077 471.532 284.589 470.787 284.24C470.521 284.121 470.236 284.02 469.935 283.943Z" fill="#F55F44"/>
<path id="1_4" opacity="0.5" d="M533.935 456.943C531.987 456.417 530.418 455.464 529.53 454.267C528.64 453.07 528.492 451.712 529.111 450.453C529.213 450.258 529.276 450.06 529.3 449.856C529.356 449.279 529.111 448.705 528.603 448.221C528.094 447.736 527.345 447.366 526.471 447.166C525.595 446.966 524.641 446.947 523.746 447.109C522.851 447.273 522.064 447.61 521.504 448.072C521.311 448.236 521.148 448.412 521.023 448.601C520.175 449.808 518.64 450.782 516.711 451.332C514.782 451.885 512.594 451.977 510.563 451.593C510.253 451.531 509.93 451.492 509.602 451.476C508.672 451.441 507.749 451.593 506.967 451.908C506.187 452.225 505.591 452.689 505.269 453.232C504.946 453.774 504.913 454.368 505.175 454.923C505.438 455.478 505.982 455.965 506.727 456.314C506.99 456.434 507.278 456.534 507.579 456.613C509.527 457.139 511.093 458.09 511.984 459.287C512.872 460.484 513.02 461.842 512.401 463.103C512.302 463.296 512.238 463.496 512.212 463.698C512.156 464.275 512.401 464.849 512.912 465.333C513.42 465.818 514.167 466.188 515.043 466.388C515.917 466.588 516.873 466.609 517.768 466.445C518.663 466.281 519.45 465.944 520.01 465.482C520.204 465.318 520.364 465.141 520.491 464.954C521.339 463.746 522.872 462.773 524.801 462.222C526.73 461.669 528.918 461.577 530.951 461.961C531.262 462.024 531.584 462.062 531.909 462.078C532.84 462.113 533.765 461.961 534.545 461.646C535.327 461.329 535.923 460.865 536.245 460.322C536.568 459.78 536.601 459.186 536.337 458.631C536.076 458.077 535.532 457.589 534.787 457.24C534.521 457.121 534.236 457.02 533.935 456.943Z" fill="#F55F44"/>
</g>
</g>
</g>
<defs>
<radialGradient id="paint0_radial" cx="0" cy="0" r="1" gradientUnits="userSpaceOnUse" gradientTransform="translate(1550.5 987.588) rotate(67.26) scale(455.635 762.657)">
<stop offset="0.15625" stop-color="#E81717"/>
<stop offset="0.588542" stop-color="#F3F815" stop-opacity="0.96875"/>
<stop offset="1" stop-color="#07CF3F" stop-opacity="0"/>
</radialGradient>
<radialGradient id="paint1_radial" cx="0" cy="0" r="1" gradientUnits="userSpaceOnUse" gradientTransform="translate(512.579 976.278) rotate(98.1276) scale(315.486 806.073)">
<stop offset="0.078125" stop-color="#E81717" stop-opacity="0.96875"/>
<stop offset="0.635417" stop-color="#F3F815"/>
<stop offset="0.947917" stop-color="#07CF3F" stop-opacity="0"/>
</radialGradient>
<clipPath id="clip0">
<rect width="1920" height="1080" fill="white"/>
</clipPath>
</defs>
</svg>
